<?xml version="1.0" encoding="UTF-8"?>
<svg width="145px" height="50px" viewBox="0 0 145 50" version="1.1" xmlns="http://www.w3.org/2000/svg" xmlns:xlink="http://www.w3.org/1999/xlink">
    <!-- Generator: Sketch 43.2 (39069) - http://www.bohemiancoding.com/sketch -->
    <title>Gatshack-logo-text</title>
    <desc>Created with Sketch.</desc>
    <defs></defs>
    <g id="Page-1" stroke="none" stroke-width="1" fill="none" fill-rule="evenodd">
        <g id="Mobile-Portrait" transform="translate(-88.000000, -20.000000)">
            <g id="Header">
                <g id="Gatshack-logo-text" transform="translate(88.000000, 20.000000)">
                    <g id="LOGOTEXT">
                        <path d="M25.044093,13.6726316 C25.2641218,12.8028764 25.4843288,12.1620764 25.7045357,11.7508728 C25.9246536,11.3396691 26.3591016,10.7471329 27.0081466,9.97216519 L12.5646008,9.97216519 L11.4868957,14.3519876 C12.1587362,14.0659767 12.6802696,13.9228339 13.0511398,13.9228339 L16.3014407,13.9228339 L15.1542809,18.7716482 C15.0152825,19.3065793 14.7776228,19.6897588 14.4416581,19.9215531 C14.1054262,20.153439 13.6421279,20.268924 13.0511398,20.268924 L10.1311938,20.268924 C9.21563866,20.268924 8.75803918,19.9652378 8.75803918,19.3573158 C8.75803918,19.1070219 8.78119074,18.9103951 8.8275829,18.7673439 L11.8867054,5.95006247 C12.0257038,5.39003792 12.2543699,4.999715 12.5732381,4.7791853 C12.8917502,4.5586556 13.3523772,4.44839075 13.954941,4.44839075 L23.1668577,4.44839075 C23.9779636,4.44839075 24.6269197,4.50196628 25.1136367,4.6093005 C25.6003537,4.71663473 26.0636521,4.87150006 26.504066,5.07398809 L26.9386029,0.533347503 L10.2876449,0.533347503 C9.01288443,0.533347503 7.89466409,0.759921622 6.93307296,1.21279511 C5.97112564,1.66585177 5.14853292,2.39869174 4.46493859,3.41158978 C3.78107713,4.42476257 3.2422691,5.77129421 2.84851449,7.4516426 L0.484651191,17.2300467 C0.20656534,18.3624594 0.0675669369,19.3515461 0.0675669369,20.1975815 C0.0675669369,21.6039163 0.443957873,22.6196534 1.19727401,23.2454339 C1.95041206,23.8710312 3.08020818,24.1838757 4.58657332,24.1838757 L12.2690623,24.1838757 C13.4045572,24.1838757 14.1982996,24.0230575 14.6502002,23.7013296 C15.1021899,23.3795101 15.5423366,22.8074883 15.9712638,21.9852642 L16.0407185,21.9852642 L15.79736,24.1838757 L23.4451216,24.1838757 C23.2130717,23.5286057 23.097492,23.0161123 23.097492,22.6463954 C23.097492,22.1223626 23.2770056,21.08547 23.636122,19.536084 L25.044093,13.6726316 Z" id="Fill-1" fill="#F2F2F2"></path>
                        <path d="M31.8855214,14.0547854 L35.3593239,8.93580382 L36.1944719,14.0547854 L31.8855214,14.0547854 Z M40.7594252,5.48911143 L34.167998,5.48911143 L34.6021788,6.33642904 L26.5076812,17.891068 C26.0770621,18.5019206 25.7207062,18.9752169 25.4387915,19.3109569 C25.1566096,19.6470632 24.7373882,20.0896795 24.1805932,20.6392637 L28.3114548,20.6392637 C28.2223213,20.3493148 28.1777991,20.1546112 28.1777991,20.0553362 C28.1777991,19.9562444 28.2000602,19.7920377 28.2446715,19.5630824 C28.3409285,19.2041722 28.4857148,18.8987459 28.6787632,18.6468951 L30.1596616,16.5626696 L36.5618693,16.5626696 L36.8847445,18.5094304 C36.8847445,19.0134067 36.8624834,19.3951209 36.8179612,19.6546645 C36.7807406,19.8225345 36.7473489,19.9333489 36.7176971,19.9865581 C36.6880453,20.0401336 36.5396082,20.2577327 36.2723858,20.6392637 L43.5875663,20.6392637 C43.2238197,20.0896795 42.963988,19.3951209 42.8080711,18.5552214 L40.7594252,5.48911143 Z" id="Fill-3" fill="#F2F2F2"></path>
                        <path d="M60.845576,8.60386449 L61.1461901,5.48906564 L47.2841046,5.48906564 L46.0704286,8.60386449 C46.463738,8.39020345 46.8146622,8.23561286 47.122667,8.14000115 C47.4306718,8.04466418 47.8184605,7.99694991 48.286122,7.99694991 L50.813649,7.99694991 L48.3976056,18.0399347 C48.2415997,18.6965784 48.083902,19.2119109 47.9242453,19.5858406 C47.7646776,19.9599535 47.5661085,20.3112624 47.3286269,20.6393095 L53.797707,20.6393095 C53.7380472,20.4028445 53.7086625,20.1280066 53.7086625,19.8148874 C53.7086625,19.3416827 53.793878,18.7497876 53.9647544,18.0399347 L56.3807087,7.99694991 L58.9082357,7.99694991 C59.3831098,7.99694991 59.7544252,8.04466418 60.0215586,8.14000115 C60.2888701,8.23561286 60.5633941,8.39020345 60.845576,8.60386449" id="Fill-5" fill="#F2F2F2"></path>
                        <path d="M74.9192935,12.2225206 C74.9192935,10.8637169 73.8984878,10.1840862 71.8573216,10.1840862 L67.9158576,10.1840862 C67.5668033,10.1840862 67.3201501,10.1574358 67.1753639,10.1039518 C67.0306666,10.0506511 66.9582735,9.94359158 66.9582735,9.78323132 C66.9582735,9.74513316 66.9731439,9.6497962 67.0027957,9.49703725 L67.2033238,8.64962807 C67.2774088,8.37479018 67.3926323,8.19730407 67.5483711,8.11716973 C67.704288,8.03694381 68.0010731,7.99692243 68.4391719,7.99692243 L73.616484,7.99692243 C74.121277,7.99692243 74.5128055,8.03520375 74.7913366,8.11130848 C75.0696005,8.18787111 75.3905168,8.31370492 75.7542634,8.48926781 L76.0103553,5.48912975 L65.6779032,5.48912975 C65.0393653,5.48912975 64.4530966,5.62467126 63.9186517,5.89557112 C63.3842069,6.16656255 62.9332857,6.56934064 62.5658883,7.10363062 C62.1984908,7.63810376 61.9217407,8.29456426 61.7362611,9.07328687 L60.9123327,12.4744629 C60.778766,13.0625116 60.7119826,13.554857 60.7119826,13.9517738 C60.7119826,14.3945733 60.7991571,14.7495455 60.9735952,15.0167821 C61.1479443,15.2841102 61.4151667,15.4748757 61.7753516,15.5892618 C62.1351802,15.7037394 62.6084515,15.7610698 63.1948984,15.7610698 L67.7377687,15.7610698 C68.1012482,15.7610698 68.3481684,15.7859801 68.4781734,15.8354345 C68.6078221,15.8852551 68.6730026,15.9863618 68.6730026,16.1389376 C68.6730026,16.1924215 68.6543923,16.2840036 68.6173499,16.4137755 L68.3723885,17.4787837 C68.3056052,17.7613145 68.1959024,17.9407238 68.0439035,18.0170117 C67.8915485,18.0932996 67.5966332,18.1314893 67.1587125,18.1314893 L61.7808723,18.1314893 C61.2982514,18.1314893 60.9216823,18.0856983 60.6508091,17.9941162 C60.3796687,17.9025341 60.0735338,17.7613145 59.7321374,17.5703658 L59.4760455,20.639282 L69.5079725,20.639282 C70.7996515,20.639282 71.7755788,20.3340389 72.4362887,19.7231863 C73.0969095,19.1126084 73.5830923,18.1735255 73.894837,16.906304 L74.7745072,13.23029 C74.8709423,12.86387 74.9192935,12.5278553 74.9192935,12.2225206" id="Fill-7" fill="#FF0000"></path>
                        <path d="M93.5239404,8.08853201 C93.6278553,7.63034675 93.7372909,7.24103124 93.8523363,6.92040231 C93.9676489,6.59977337 94.0826053,6.33638325 94.1978289,6.13023194 C94.3128743,5.92417221 94.4521398,5.71041958 94.6157145,5.48906564 L88.1428946,5.48906564 C88.2022872,5.84019142 88.2320281,6.10724483 88.2320281,6.29059219 C88.2320281,6.75637876 88.1391547,7.35560045 87.953497,8.08853201 L87.140432,11.5354991 L82.9850832,11.5354991 L83.8093678,8.08853201 C83.9652846,7.41677729 84.1248523,6.89750678 84.2883379,6.53108679 C84.4519126,6.16475839 84.6560916,5.81738748 84.901231,5.48906564 L78.4174585,5.48906564 C78.4842419,5.88598247 78.5177226,6.15312746 78.5177226,6.29059219 C78.5177226,6.71809744 78.4247602,7.3175023 78.2392806,8.08853201 L75.8437175,18.0399347 C75.6880677,18.6965784 75.528322,19.2078813 75.3649254,19.5743928 C75.2013507,19.9407212 75.0047405,20.295785 74.7745606,20.6393095 L81.2470244,20.6393095 C81.1876317,20.4032108 81.158069,20.1286477 81.158069,19.8163527 C81.158069,19.3437891 81.2435516,18.7532677 81.4143389,18.0443307 L82.3724573,14.0661873 L86.5165865,14.0661873 L85.5585572,18.0443307 C85.3131506,19.1114453 84.9567947,19.9765298 84.4888661,20.6393095 L90.9726385,20.6393095 C90.9131568,20.4028445 90.8837721,20.1280066 90.8837721,19.8148874 C90.8837721,19.3567022 90.9653368,18.765265 91.1287334,18.0399347 L93.5239404,8.08853201 Z" id="Fill-9" fill="#FF0000"></path>
                        <path d="M99.0359973,14.0547854 L102.509889,8.93580382 L103.345037,14.0547854 L99.0359973,14.0547854 Z M107.909901,5.48911143 L101.318563,5.48911143 L101.752744,6.33642904 L93.6581571,17.891068 C93.2276271,18.5019206 92.8713602,18.9752169 92.5892674,19.3109569 C92.3072636,19.6470632 91.8877751,20.0896795 91.3311582,20.6392637 L95.4618417,20.6392637 C95.3728863,20.3493148 95.328275,20.1546112 95.328275,20.0553362 C95.328275,19.9562444 95.3505361,19.7920377 95.3950583,19.5630824 C95.4914044,19.2041722 95.6361017,18.8987459 95.8292391,18.6468951 L97.3101376,16.5626696 L103.712345,16.5626696 L104.03522,18.5094304 C104.03522,19.0134067 104.012959,19.3951209 103.968437,19.6546645 C103.931217,19.8225345 103.897736,19.9333489 103.868262,19.9865581 C103.838343,20.0401336 103.690084,20.2577327 103.422862,20.6392637 L110.738042,20.6392637 C110.374207,20.0896795 110.114642,19.3951209 109.958725,18.5552214 L107.909901,5.48911143 Z" id="Fill-11" fill="#FF0000"></path>
                        <path d="M121.727553,18.1315351 L118.576626,18.1315351 C117.990001,18.1315351 117.696867,17.9368316 117.696867,17.5475161 C117.696867,17.3871558 117.711737,17.2612304 117.741389,17.1696483 L119.700991,8.95885503 C119.790124,8.60012794 119.936691,8.34992564 120.141048,8.20879762 C120.345049,8.06748644 120.640053,7.99696822 121.026061,7.99696822 L125.012136,7.99696822 C125.531622,7.99696822 125.947459,8.03121993 126.259204,8.09999809 C126.570949,8.16868466 126.867912,8.26795966 127.149916,8.3977315 L127.428269,5.48908396 L118.676712,5.48908396 C117.859996,5.48908396 117.143812,5.63415001 116.527891,5.92419052 C115.911704,6.2144142 115.384738,6.68395564 114.946818,7.33263166 C114.508719,7.98167401 114.163583,8.84428582 113.91132,9.92083342 L112.397119,16.1846828 C112.218941,16.9101046 112.129807,17.5436696 112.129807,18.0857441 C112.129807,18.9865456 112.371029,19.637328 112.853561,20.0381829 C113.335914,20.4389462 114.059757,20.6393278 115.024821,20.6393278 L124.010119,20.6393278 L125.212576,17.57032 C124.730133,17.7994584 124.278944,17.9502942 123.859723,18.0227356 C123.440324,18.0952686 122.729571,18.1315351 121.727553,18.1315351" id="Fill-13" fill="#FF0000"></path>
                        <path d="M143.605617,6.10726314 C143.902848,5.92419052 144.285115,5.71803921 144.753133,5.48908396 L139.672969,5.48908396 C139.65792,5.57306475 139.645098,5.65695395 139.633967,5.74093474 C139.622837,5.82500711 139.602356,5.92812855 139.572704,6.05011591 C139.498352,6.30975117 139.386958,6.55216899 139.238343,6.77718622 C139.089816,7.00247818 138.807545,7.30973613 138.391797,7.69905165 L133.489899,12.2682658 L134.49254,8.08855032 C134.648457,7.41679561 134.808113,6.8975251 134.971777,6.53110511 C135.135085,6.1647767 135.339353,5.81740579 135.584403,5.48908396 L129.100542,5.48908396 C129.167325,5.88600079 129.200717,6.15314578 129.200717,6.29061051 C129.200717,6.71811576 129.107843,7.31752061 128.922275,8.08855032 L126.52689,18.039953 C126.371151,18.6965967 126.211316,19.2078996 126.048008,19.5744111 C125.884345,19.9407395 125.687735,20.2958034 125.457466,20.6393278 L131.930107,20.6393278 C131.870626,20.4028628 131.841152,20.1280249 131.841152,19.8149057 C131.841152,19.341701 131.926546,18.7498059 132.097422,18.039953 L132.643354,15.761024 L134.347665,14.2150266 L136.063284,20.6393278 L142.903769,20.6393278 C142.43584,19.9599718 141.979042,18.9293984 141.533374,17.5475161 L139.049123,9.94363737 L142.469143,6.96630325 C142.929592,6.57689616 143.308476,6.29061051 143.605617,6.10726314" id="Fill-15" fill="#FF0000"></path>
                        <polygon id="Fill-17" fill="#F2F2F2" points="24.1849208 24.2368559 143.486778 24.2368559 143.486778 22.717692 24.1849208 22.717692"></polygon>
                        <path d="M131.076696,9.87572924 C131.076696,9.87572924 131.131281,10.3117516 131.254429,10.3680746 C131.377489,10.4242144 131.541598,10.3680746 131.541598,10.3680746 L131.445875,10.5367688 C131.445875,10.5367688 131.541598,10.7335788 131.582647,10.7618777 C131.623786,10.7899934 131.992875,10.7618777 131.992875,10.7618777 L132.266419,10.7758897 C132.266419,10.7758897 131.979162,10.9727912 131.951825,11.127565 C131.924489,11.2822472 131.904276,11.4151328 131.904276,11.4151328 L132.061439,11.5214596 L132.375766,11.6480261 L132.102489,11.8309155 L131.869905,12.0839569 L132.033924,12.4778515 L132.129558,12.7451796 L131.610073,12.4778515 C131.610073,12.4778515 131.459588,12.6888566 131.391112,12.6466373 C131.322904,12.6044179 131.254429,12.7029603 131.254429,12.7451796 C131.254429,12.7873074 131.350063,13.2233298 131.350063,13.2233298 C131.350063,13.2233298 131.062984,12.674753 130.926211,12.6888566 C130.789439,12.7029603 130.625419,12.7169724 130.625419,12.7169724 C130.625419,12.7169724 130.269687,12.7591001 130.187766,13.0405319 C130.187766,13.0405319 129.982518,13.4061277 129.996142,13.3498963 C130.010033,13.2936648 129.968894,12.7873074 129.968894,12.7873074 C129.968894,12.7873074 129.845746,12.5339913 129.763825,12.5059672 C129.681726,12.4778515 129.668013,12.1262678 129.626964,12.1543835 C129.585914,12.1824992 129.285033,12.3232609 129.285033,12.3232609 L129.517617,11.9855977 L128.997864,12.0980605 C128.997864,12.0980605 129.339884,11.8167203 129.353419,11.4932523 C129.367132,11.1696927 129.134637,10.5508725 129.134637,10.5508725 C129.134637,10.5508725 129.39429,10.9868949 129.57229,10.8602368 C129.750023,10.7335788 129.709063,10.2975564 129.750023,10.3117516 C129.791073,10.3257637 129.654211,10.4384097 130.174053,10.353971 C130.693538,10.2695323 130.256063,10.3257637 130.420172,10.1429658 C130.58437,9.96016794 130.556855,9.48183462 130.597993,9.49602985 C130.638954,9.51004191 130.762102,10.4805374 131.076696,9.87572924" id="Fill-19" fill="#CCCCCC"></path>
                        <path d="M131.591311,11.6107796 C131.594606,11.5790922 131.596298,11.5468553 131.596298,11.5142521 C131.596298,11.1327211 131.367008,10.8044908 131.037366,10.6537467 L130.939862,10.4804733 L130.980822,10.0795269 L130.816713,10.4383456 L130.476207,10.5784662 C130.425363,10.5865254 130.375765,10.5981563 130.328037,10.6138169 L130.078357,10.6354302 L129.777386,10.8041245 L129.970524,10.8249136 C129.794661,10.9886624 129.681931,11.2166103 129.670266,11.4710253 L129.613366,11.5777185 L129.531178,11.6057426 L129.394495,11.9856252 L129.572317,11.7324007 L129.694486,11.7324007 C129.745687,11.9461533 129.869725,12.131607 130.039889,12.2624779 L130.09198,12.4497633 C129.845683,12.6465732 130.344867,12.5903418 130.344867,12.5903418 L130.919293,12.5903418 L130.626336,12.463409 C130.628295,12.463409 130.630165,12.4636837 130.632213,12.4636837 C130.969959,12.4636837 131.266744,12.2923336 131.439045,12.0332479 L131.456943,12.0870981 L131.329342,12.2886703 L131.688459,11.8712391 L131.904302,11.4150687 L131.591311,11.6107796 Z" id="Fill-20" fill="#000000"></path>
                        <path d="M115.09139,13.083429 C115.09139,13.083429 115.287644,13.4738435 115.422101,13.483368 C115.55647,13.4929841 115.691728,13.3823529 115.691728,13.3823529 L115.658069,13.5746754 C115.658069,13.5746754 115.813363,13.7260606 115.861358,13.7379662 C115.909353,13.7499635 116.247009,13.5937244 116.247009,13.5937244 L116.508711,13.5105679 C116.508711,13.5105679 116.304176,13.7968535 116.329999,13.9517189 C116.355733,14.1067674 116.380932,14.2386456 116.380932,14.2386456 L116.56383,14.2834292 L116.901486,14.2915801 L116.705321,14.5596409 L116.570953,14.879354 L116.856252,15.1917405 L117.035142,15.409248 L116.457956,15.3408362 C116.457956,15.3408362 116.386809,15.5921375 116.308361,15.5764769 C116.23018,15.5608164 116.198658,15.6774004 116.212638,15.717147 C116.226618,15.7568021 116.461696,16.1327466 116.461696,16.1327466 C116.461696,16.1327466 116.00935,15.7183376 115.885578,15.7797892 C115.761717,15.840966 115.612211,15.9120338 115.612211,15.9120338 C115.612211,15.9120338 115.292186,16.07679 115.308481,16.3699443 C115.308481,16.3699443 115.237512,16.7858186 115.231546,16.7280303 C115.225758,16.6705167 115.01873,16.2090345 115.01873,16.2090345 C115.01873,16.2090345 114.818736,16.0144225 114.732452,16.0169868 C114.645901,16.0194596 114.516163,15.6936104 114.486957,15.7345476 C114.45775,15.7753933 114.221693,16.0135067 114.221693,16.0135067 L114.328012,15.6143919 L113.876913,15.9030587 C113.876913,15.9030587 114.104956,15.5183223 114.009856,15.209599 C113.915202,14.9008758 113.490905,14.4011122 113.490905,14.4011122 C113.490905,14.4011122 113.880119,14.71936 114.005137,14.5378443 C114.129977,14.3563286 113.946546,13.9609687 113.989732,13.9597781 C114.032919,13.9587707 113.941915,14.1124455 114.402186,13.8502459 C114.862457,13.5881379 114.469949,13.7950219 114.563179,13.5655172 C114.656675,13.3359208 114.471908,12.8961436 114.515095,12.8948614 C114.55837,12.8936709 114.996825,13.7623271 115.09139,13.083429" id="Fill-21" fill="#CCCCCC"></path>
                        <path d="M116.151928,14.5328165 C116.144626,14.5017701 116.135454,14.470907 116.124591,14.4403185 C115.997614,14.0815915 115.673225,13.8540099 115.31304,13.8282754 L115.16389,13.6997857 L115.069058,13.3087301 L115.034242,13.703449 L114.760875,13.9549334 C114.715819,13.9805764 114.673077,14.0086921 114.633363,14.0402879 L114.405855,14.1483548 L114.179237,14.4126607 L114.367744,14.3644886 C114.256794,14.580256 114.226697,14.8341216 114.300159,15.0771805 L114.282261,15.1974278 L114.214409,15.2526518 L114.21245,15.6577194 L114.295173,15.3572385 L114.41004,15.314195 C114.529181,15.4972676 114.707448,15.6278636 114.910915,15.6909637 L115.022042,15.8485765 C114.856331,16.1200259 115.306629,15.8917117 115.306629,15.8917117 L115.846238,15.68959 L115.528884,15.67338 C115.530754,15.6726473 115.532534,15.6724641 115.534404,15.6717315 C115.851937,15.5527663 116.073747,15.2873614 116.149434,14.9833088 L116.184251,15.0276346 L116.131269,15.2619932 L116.329838,14.7432721 L116.38095,14.2386548 L116.151928,14.5328165 Z" id="Fill-22" fill="#000000"></path>
                        <path d="M107.495657,10.5710022 C107.495657,10.5710022 107.137075,10.8102147 107.140904,10.9485952 C107.144733,11.0870674 107.264854,11.214916 107.264854,11.214916 L107.075546,11.1991639 C107.075546,11.1991639 106.944383,11.3729867 106.937438,11.4232653 C106.930403,11.4734523 107.114725,11.8036973 107.114725,11.8036973 L107.220599,12.0635157 C107.220599,12.0635157 106.923725,11.8821832 106.776267,11.9237615 C106.62881,11.9653397 106.503524,12.0038958 106.503524,12.0038958 L106.478324,12.1954855 L106.503257,12.5419406 L106.224815,12.367202 L105.902296,12.2610583 L105.627683,12.5835189 L105.434723,12.7876554 L105.444696,12.1902654 C105.444696,12.1902654 105.194481,12.1418184 105.202139,12.0602188 C105.20953,11.9786191 105.093594,11.9576468 105.056552,11.9759633 C105.019509,11.9940049 104.678647,12.2714071 104.678647,12.2714071 C104.678647,12.2714071 105.035359,11.7677971 104.964034,11.6472751 C104.89271,11.5263867 104.809364,11.3803133 104.809364,11.3803133 C104.809364,11.3803133 104.61872,11.068751 104.336627,11.1140841 C104.336627,11.1140841 103.927379,11.0820304 103.982675,11.0703079 C104.037794,11.0586769 104.46405,10.8017891 104.46405,10.8017891 C104.46405,10.8017891 104.632878,10.5782372 104.622104,10.4899521 C104.611151,10.4016669 104.913635,10.2370939 104.871339,10.2110846 C104.828865,10.1852584 104.575533,9.9669267 104.575533,9.9669267 L104.97187,10.0367123 L104.648728,9.60334575 C104.648728,9.60334575 105.043284,9.79896512 105.332767,9.67184917 C105.622162,9.54455004 106.064535,9.06154604 106.064535,9.06154604 C106.064535,9.06154604 105.794463,9.4910661 105.982258,9.6010562 C106.170053,9.71132105 106.53469,9.48483851 106.54021,9.52888951 C106.545464,9.57312366 106.387855,9.49491255 106.686332,9.94036789 C106.984987,10.3859148 106.746437,10.0043838 106.977686,10.0776495 C107.208934,10.1508236 107.616402,9.91866293 107.621833,9.9628055 C107.627265,10.0069481 106.829427,10.5406886 107.495657,10.5710022" id="Fill-23" fill="#CCCCCC"></path>
                        <path d="M106.196686,11.7981474 C106.22607,11.7874323 106.254832,11.7752519 106.283593,11.7611483 C106.618222,11.5961173 106.806907,11.2418778 106.796578,10.8707871 L106.906192,10.7054814 L107.275459,10.5703062 L106.890075,10.5732368 L106.620181,10.3179059 C106.590975,10.2740381 106.559453,10.2332841 106.525082,10.1957354 L106.398371,9.97337408 L106.120286,9.7670396 L106.185377,9.9553324 C105.965793,9.86292606 105.717181,9.85688164 105.489138,9.95606506 L105.371065,9.94937957 L105.311049,9.88527209 L104.91872,9.92263759 L105.217642,9.97813635 L105.270623,10.091515 C105.105179,10.2312693 104.996099,10.4265223 104.95505,10.6408244 L104.81338,10.7701384 C104.534226,10.626904 104.799222,11.0654906 104.799222,11.0654906 L105.047478,11.5982237 L105.032073,11.2717335 C105.033142,11.2734736 105.033498,11.2753052 105.034299,11.2771369 C105.180332,11.5906224 105.458863,11.7916451 105.760457,11.8395426 L105.721099,11.8796555 L105.489138,11.8481513 L106.010494,12.0007271 L106.503533,12.0038408 L106.196686,11.7981474 Z" id="Fill-24" fill="#000000"></path>
                        <path d="M91.5767873,12.4277744 C91.5767873,12.4277744 91.2181162,12.6668037 91.2220342,12.8053674 C91.2258631,12.9437479 91.3459841,13.0715966 91.3459841,13.0715966 L91.1567646,13.0558444 C91.1567646,13.0558444 91.0255131,13.2295757 91.0185676,13.2798543 C91.0115331,13.3301328 91.1958551,13.6603779 91.1958551,13.6603779 L91.301729,13.9201963 C91.301729,13.9201963 91.0047657,13.7389553 90.8573971,13.780442 C90.7099395,13.8220203 90.584743,13.8606679 90.584743,13.8606679 L90.5594544,14.051983 L90.5843868,14.3986212 L90.3059448,14.2239741 L89.9834258,14.1176473 L89.7089017,14.4401995 L89.5158533,14.644336 L89.5257372,14.0470375 C89.5257372,14.0470375 89.2757894,13.998499 89.2832692,13.9168994 C89.2905708,13.8352997 89.1746349,13.814419 89.1375924,13.8324607 C89.100728,13.8507771 88.7597768,14.1279961 88.7597768,14.1279961 C88.7597768,14.1279961 89.1165779,13.6244777 89.0452533,13.5038641 C88.9737506,13.3831589 88.8905831,13.2369938 88.8905831,13.2369938 C88.8905831,13.2369938 88.6997608,12.9254315 88.417757,12.9708563 C88.417757,12.9708563 88.0085977,12.9386194 88.0638053,12.92708 C88.1189238,12.9153575 88.5451796,12.6585613 88.5451796,12.6585613 C88.5451796,12.6585613 88.7140079,12.4349178 88.7032335,12.3466326 C88.6922811,12.2583475 88.9948542,12.0937745 88.9523799,12.0678567 C88.9099948,12.041939 88.6566633,11.8235157 88.6566633,11.8235157 L89.0530892,11.8934844 L88.7298578,11.4599347 C88.7298578,11.4599347 89.1244138,11.6555541 89.4138974,11.5285297 C89.7032919,11.4013222 90.1456648,10.918135 90.1456648,10.918135 C90.1456648,10.918135 89.875682,11.3476551 90.0633877,11.4578284 C90.2511824,11.5680932 90.6159086,11.3415191 90.6213403,11.3856617 C90.6265939,11.4298958 90.4689852,11.3516847 90.7674622,11.7970485 C91.0661174,12.242687 90.8275672,11.8611559 91.0589048,11.9342384 C91.2900642,12.0075957 91.6974426,11.7754351 91.7028743,11.8194861 C91.7084841,11.8637202 90.9106457,12.3973691 91.5767873,12.4277744" id="Fill-25" fill="#CCCCCC"></path>
                        <path d="M90.2779047,13.654828 C90.3072003,13.6442045 90.3359617,13.6318409 90.364723,13.6177373 C90.6993521,13.4528895 90.8880373,13.0985583 90.8777972,12.7275592 L90.987411,12.562162 L91.3566783,12.4268952 L90.971383,12.4297342 L90.7012221,12.1744949 C90.6721045,12.1308103 90.6404937,12.0899647 90.6063007,12.0523244 L90.4795014,11.8299631 L90.2015045,11.6238118 L90.266507,11.8121046 C90.0469234,11.7196066 89.7982222,11.7136538 89.5703574,11.8125625 L89.4521954,11.8059686 L89.3920904,11.7419527 L88.9998495,11.7793182 L89.2987718,11.8348169 L89.3517533,11.948104 C89.1863086,12.0880414 89.0772292,12.2831113 89.0361797,12.4975966 L88.8944209,12.6268189 C88.6154446,12.4835845 88.8803519,12.9221712 88.8803519,12.9221712 L89.1286078,13.4549043 L89.1132031,13.1284141 C89.1141826,13.1301542 89.1146279,13.1319858 89.1154293,13.133909 C89.2614622,13.4472114 89.5399042,13.6483257 89.8416759,13.6962231 L89.8022292,13.7361529 L89.5703574,13.7048318 L90.0915346,13.8574992 L90.5847519,13.860613 L90.2779047,13.654828 Z" id="Fill-26" fill="#000000"></path>
                        <path d="M81.4838915,12.4277744 C81.4838915,12.4277744 81.1253095,12.6668037 81.1290494,12.8053674 C81.1330564,12.9437479 81.2530883,13.0715966 81.2530883,13.0715966 L81.0637798,13.0558444 C81.0637798,13.0558444 80.9326173,13.2295757 80.9256718,13.2798543 C80.9185483,13.3301328 81.1029593,13.6603779 81.1029593,13.6603779 L81.2088332,13.9201963 C81.2088332,13.9201963 80.9118699,13.7389553 80.7644123,13.780442 C80.6170437,13.8220203 80.4918472,13.8606679 80.4918472,13.8606679 L80.4665586,14.051983 L80.491491,14.3986212 L80.213049,14.2239741 L79.8904409,14.1176473 L79.6159169,14.4401995 L79.4230465,14.644336 L79.4329305,14.0470375 C79.4329305,14.0470375 79.1828046,13.998499 79.1902843,13.9168994 C79.1977641,13.8352997 79.0818282,13.814419 79.0447857,13.8324607 C79.0077432,13.8507771 78.666881,14.1279961 78.666881,14.1279961 C78.666881,14.1279961 79.0236821,13.6244777 78.9522685,13.5038641 C78.8809439,13.3831589 78.7976873,13.2369938 78.7976873,13.2369938 C78.7976873,13.2369938 78.6069541,12.9254315 78.3249503,12.9708563 C78.3249503,12.9708563 77.9156129,12.9386194 77.9709095,12.92708 C78.025939,12.9153575 78.4523729,12.6585613 78.4523729,12.6585613 C78.4523729,12.6585613 78.6212012,12.4349178 78.6103378,12.3466326 C78.5993853,12.2583475 78.9018693,12.0937745 78.8595732,12.0678567 C78.817099,12.041939 78.5636785,11.8235157 78.5636785,11.8235157 L78.9601934,11.8934844 L78.636962,11.4599347 C78.636962,11.4599347 79.0315181,11.6555541 79.3210016,11.5285297 C79.6104851,11.4013222 80.052769,10.918135 80.052769,10.918135 C80.052769,10.918135 79.7827862,11.3476551 79.9704919,11.4578284 C80.1582867,11.5680932 80.5229237,11.3415191 80.5284445,11.3856617 C80.5336981,11.4298958 80.3760004,11.3516847 80.6745664,11.7970485 C80.9731325,12.242687 80.7346715,11.8611559 80.9659199,11.9342384 C81.1972574,12.0075957 81.6044577,11.7754351 81.6100676,11.8194861 C81.6154993,11.8637202 80.8177499,12.3973691 81.4838915,12.4277744" id="Fill-27" fill="#CCCCCC"></path>
                        <path d="M80.1850089,13.654828 C80.2143045,13.6442045 80.2431549,13.6318409 80.2718273,13.6177373 C80.6064563,13.4528895 80.7951415,13.0985583 80.7848124,12.7275592 L80.8945152,12.562162 L81.2636935,12.4268952 L80.8783981,12.4297342 L80.6083263,12.1744949 C80.5792087,12.1308103 80.5475979,12.0899647 80.5134049,12.0523244 L80.3866056,11.8299631 L80.1086088,11.6238118 L80.1735222,11.8121046 C79.9539385,11.7196066 79.7054154,11.7136538 79.4773726,11.8125625 L79.3592996,11.8059686 L79.2991946,11.7419527 L78.9069538,11.7793182 L79.205876,11.8348169 L79.2587684,11.948104 C79.0933238,12.0880414 78.9843334,12.2831113 78.9431949,12.4975966 L78.8016142,12.6268189 C78.5225488,12.4835845 78.7875451,12.9221712 78.7875451,12.9221712 L79.035712,13.4549043 L79.0203074,13.1284141 C79.0212868,13.1301542 79.0217321,13.1319858 79.0225335,13.133909 C79.1685664,13.4472114 79.4470975,13.6483257 79.7487801,13.6962231 L79.7092444,13.7361529 L79.4773726,13.7048318 L79.9987279,13.8574992 L80.4918561,13.860613 L80.1850089,13.654828 Z" id="Fill-28" fill="#000000"></path>
                        <path d="M69.2575795,12.2589153 C69.2575795,12.2589153 68.8989975,12.4980362 68.9028264,12.6365083 C68.9066553,12.7748889 69.0267763,12.9027375 69.0267763,12.9027375 L68.8374678,12.8869854 C68.8374678,12.8869854 68.7063053,13.0608082 68.6993598,13.1110868 C68.6923253,13.1613653 68.8766473,13.4916104 68.8766473,13.4916104 L68.9825212,13.7514288 C68.9825212,13.7514288 68.6855579,13.5700963 68.5381893,13.6115829 C68.3907317,13.6532528 68.2655352,13.6918089 68.2655352,13.6918089 L68.2401575,13.883307 L68.265179,14.2298537 L67.986737,14.0551151 L67.6642179,13.9489714 L67.3896048,14.271432 L67.1966455,14.4754769 L67.2064404,13.8781784 C67.2064404,13.8781784 66.9564035,13.8297315 66.9639723,13.7481319 C66.971363,13.6665322 66.8555162,13.6455599 66.8184737,13.6637847 C66.7814312,13.6820096 66.440569,13.9592286 66.440569,13.9592286 C66.440569,13.9592286 66.7973701,13.4557102 66.7259565,13.3350966 C66.6545428,13.2142998 66.5713753,13.0682263 66.5713753,13.0682263 C66.5713753,13.0682263 66.380553,12.756664 66.0985492,12.8020888 C66.0985492,12.8020888 65.6893008,12.7698519 65.7445975,12.7582209 C65.799716,12.7466816 66.2259718,12.4897022 66.2259718,12.4897022 C66.2259718,12.4897022 66.3948001,12.2660587 66.3840257,12.1778652 C66.3730733,12.0896716 66.6755573,11.9249154 66.6331721,11.8989977 C66.590787,11.8732631 66.3372774,11.6547482 66.3372774,11.6547482 L66.7337924,11.7246253 L66.410561,11.2911672 C66.410561,11.2911672 66.805117,11.4867866 67.0946005,11.3596707 C67.3840841,11.2323715 67.826457,10.7493675 67.826457,10.7493675 C67.826457,10.7493675 67.5563851,11.1788876 67.7441799,11.2890609 C67.9319746,11.3992341 68.2966117,11.1727516 68.3021325,11.2168026 C68.307297,11.2610367 68.1496883,11.1828256 68.4481654,11.628281 C68.7468205,12.0738279 68.5082704,11.6922969 68.7396079,11.765471 C68.9707673,11.8387366 69.3782348,11.606576 69.3836665,11.6507186 C69.3891872,11.6948612 68.5913489,12.2286016 69.2575795,12.2589153" id="Fill-29" fill="#CCCCCC"></path>
                        <path d="M67.9586078,13.4860697 C67.9879035,13.4754462 68.0167539,13.4630826 68.0455152,13.4490705 C68.3800553,13.2840396 68.5687405,12.9298 68.5585004,12.5587093 L68.6681141,12.393312 L69.0372924,12.2581369 L68.6520861,12.2610675 L68.3821033,12.0057366 C68.3528967,11.9620519 68.3212859,11.9211147 68.2870038,11.8835661 L68.1602935,11.6612047 L67.8822077,11.4549618 L67.9472101,11.6432546 C67.7277155,11.5508483 67.4791034,11.5448955 67.2510606,11.6438957 L67.1328986,11.6372102 L67.0727935,11.5731943 L66.6805527,11.6105598 L66.979564,11.665967 L67.0324564,11.7793456 C66.8670118,11.9192831 66.7579323,12.114353 66.7168828,12.3286551 L66.5752131,12.4580606 C66.2961478,12.3147346 66.5611441,12.7535045 66.5611441,12.7535045 L66.8094,13.2860544 L66.7939953,12.9596558 C66.7949748,12.9613958 66.79542,12.963319 66.7962214,12.9651507 C66.9422544,13.2784531 67.2207854,13.4796589 67.522379,13.5275564 L67.4829323,13.5674862 L67.2510606,13.5359819 L67.7724159,13.6886493 L68.2655441,13.6917631 L67.9586078,13.4860697 Z" id="Fill-30" fill="#000000"></path>
                        <path d="M7.11728814,24.9119167 L54.9235673,24.8353541 L54.308092,26.2276768 L44.8311791,26.2276768 L43.6004065,26.7340342 L22.6771844,27.3669581 C22.6771844,27.3669581 10.7385483,28.3798562 10.123162,28.5063311 C9.50777573,28.6328975 8.52321113,30.7848022 8.52321113,30.7848022 C8.52321113,30.7848022 7.90773581,28.5063311 6.92317121,28.3797646 C5.93860661,28.2531065 2.52882707,27.9999736 2.52882707,27.9999736 C2.52882707,27.9999736 1.75396217,26.6074678 3.47697249,26.1011103 C5.20007185,25.5949361 6.20378101,25.4949284 7.11728814,24.9119167" id="Fill-31" fill="#F2F2F2"></path>
                        <path d="M26.1542815,27.1906443 C26.1542815,27.1906443 23.3643405,28.878594 21.80535,31.3259425 C20.2462706,33.7733826 15.7332302,48.8799417 15.7332302,48.8799417 C15.7332302,48.8799417 16.6357848,49.9771869 15.8153292,49.9771869 C14.9946954,49.9771869 3.26068349,49.0488191 3.26068349,49.0488191 C3.26068349,49.0488191 1.87889155,47.6140939 2.52873803,45.6730113 C3.17867354,43.7320202 6.21473348,36.7271801 6.21473348,36.7271801 L9.41490236,27.612563 C9.41490236,27.612563 22.4616968,25.7559191 26.1542815,27.1906443" id="Fill-32" fill="#F2F2F2"></path>
                        <path d="M25.1149635,27.2188241 C25.1149635,27.2188241 23.5832206,28.7941278 24.2396564,30.9883434 C24.8960922,33.1826505 28.17836,33.0702793 29.1630137,32.7888475 C30.1476673,32.5075073 31.0229744,31.2696836 30.9135387,29.9193971 C30.8041922,28.5691106 29.6006672,27.1625011 29.1630137,26.9937153 C28.7253602,26.8249295 35.8916584,26.6560521 35.8916584,26.6560521 C35.8916584,26.6560521 32.8282618,26.9374839 32.2264993,28.6252504 C31.6248259,30.3132917 32.5547172,31.663395 31.3511923,32.9575417 C30.1477564,34.2516884 23.2550028,34.3079198 22.5438937,34.3641512 C21.8326956,34.4204742 19.9728239,35.1519404 19.1522792,37.289833 C18.3317345,39.4278172 19.9181506,30.3694315 20.7933686,29.5818255 C21.6685866,28.7941278 20.3557151,25.924769 25.1149635,27.2188241" id="Fill-33" fill="#F2F2F2"></path>
                        <path d="M27.1389441,26.8811975 C27.1389441,26.8811975 24.4038544,29.5818621 27.5765976,32.2262037 C27.5765976,32.2262037 24.0208742,32.0010949 24.2397455,27.6688952 C24.2397455,27.6688952 24.9508545,26.1499144 27.1389441,26.8811975" id="Fill-34" fill="#F2F2F2"></path>
                        <polygon id="Fill-35" fill="#F2F2F2" points="32.8828282 27.5561668 43.5500875 27.3874725 45.027157 25.9809546 31.7340656 26.0932343"></polygon>
                    </g>
                </g>
            </g>
        </g>
    </g>
</svg>